sredsol-website/public/icons/instagram.svg
<svg xmlns="http://www.w3.org/2000/svg" viewBox="0 0 32 32" width="32" height="32" fill="none">
  <rect width="32" height="32" rx="8" fill="#fff"/>
  <path d="M16 10.667a5.333 5.333 0 1 0 0 10.666 5.333 5.333 0 0 0 0-10.666zm0 8.8a3.467 3.467 0 1 1 0-6.934 3.467 3.467 0 0 1 0 6.934z" fill="#262626"/>
  <path d="M22.667 8.667a2.667 2.667 0 0 1 2.666 2.666v8.934a2.667 2.667 0 0 1-2.666 2.666H9.333a2.667 2.667 0 0 1-2.666-2.666V11.333a2.667 2.667 0 0 1 2.666-2.666h13.334zm0-2H9.333A4.667 4.667 0 0 0 4.667 11.333v8.934A4.667 4.667 0 0 0 9.333 25h13.334a4.667 4.667 0 0 0 4.666-4.733V11.333A4.667 4.667 0 0 0 22.667 6.667z" fill="#262626"/>
  <circle cx="22.222" cy="9.778" r="1.111" fill="#262626"/>
</svg>
