sredsol-website/public/icons/twitter.svg
<svg xmlns="http://www.w3.org/2000/svg" viewBox="0 0 24 24" width="24" height="24" fill="currentColor">
  <title>Twitter</title>
  <path d="M22.46 5.94c-.79.35-1.64.59-2.53.7a4.18 4.18 0 0 0 1.83-2.3 8.36 8.36 0 0 1-2.64 1.01 4.15 4.15 0 0 0-7.07 3.78A11.78 11.78 0 0 1 3.1 4.89a4.15 4.15 0 0 0 1.28 5.54c-.7-.02-1.36-.21-1.93-.53v.05a4.15 4.15 0 0 0 3.33 4.07c-.33.09-.68.14-1.04.14-.25 0-.5-.02-.74-.07a4.16 4.16 0 0 0 3.87 2.88A8.33 8.33 0 0 1 2 19.54a11.76 11.76 0 0 0 6.36 1.86c7.63 0 11.81-6.32 11.81-11.81 0-.18-.01-.36-.02-.54a8.48 8.48 0 0 0 2.08-2.17z"/>
</svg>
