<svg xmlns="http://www.w3.org/2000/svg" width="512" height="512" viewBox="0 0 100 100">
  <title>C2H2-lewis-structure</title>
  <g>
    <circle cx="50" cy="45.74" r="2" style="fill: #fff"/>
    <circle cx="50" cy="51.74" r="2" style="fill: #fff"/>
    <circle cx="44" cy="45.74" r="2" style="fill: #fff"/>
    <circle cx="44" cy="51.74" r="2" style="fill: #fff"/>
    <circle cx="56" cy="45.74" r="2" style="fill: #fff"/>
    <circle cx="56" cy="51.74" r="2" style="fill: #fff"/>
    <circle cx="18.06" cy="45.74" r="2" style="fill: #fff"/>
    <circle cx="18.06" cy="51.74" r="2" style="fill: #fff"/>
    <circle cx="81.83" cy="45.74" r="2" style="fill: #fff"/>
    <circle cx="81.83" cy="51.74" r="2" style="fill: #fff"/>
    <g>
      <path d="M34.24,50.25l1.33.33a4.46,4.46,0,0,1-1.5,2.49,4.14,4.14,0,0,1-2.65.86,4.76,4.76,0,0,1-2.63-.66,4.12,4.12,0,0,1-1.54-1.91,6.81,6.81,0,0,1-.53-2.69,5.9,5.9,0,0,1,.6-2.73A4.1,4.1,0,0,1,29,44.17a5,5,0,0,1,2.43-.6,4.11,4.11,0,0,1,2.53.77,4,4,0,0,1,1.43,2.15l-1.31.31a3.1,3.1,0,0,0-1-1.59,2.7,2.7,0,0,0-1.67-.5,3.24,3.24,0,0,0-1.93.55,2.92,2.92,0,0,0-1.09,1.49,6,6,0,0,0-.31,1.92,6.1,6.1,0,0,0,.37,2.23,2.77,2.77,0,0,0,1.16,1.43,3.25,3.25,0,0,0,1.7.47,2.85,2.85,0,0,0,1.89-.64A3.28,3.28,0,0,0,34.24,50.25Z" style="stroke: #fff;stroke-miterlimit: 10;stroke-width: 1.5px"/>
      <path d="M34.24,50.25l1.33.33a4.46,4.46,0,0,1-1.5,2.49,4.14,4.14,0,0,1-2.65.86,4.76,4.76,0,0,1-2.63-.66,4.12,4.12,0,0,1-1.54-1.91,6.81,6.81,0,0,1-.53-2.69,5.9,5.9,0,0,1,.6-2.73A4.1,4.1,0,0,1,29,44.17a5,5,0,0,1,2.43-.6,4.11,4.11,0,0,1,2.53.77,4,4,0,0,1,1.43,2.15l-1.31.31a3.1,3.1,0,0,0-1-1.59,2.7,2.7,0,0,0-1.67-.5,3.24,3.24,0,0,0-1.93.55,2.92,2.92,0,0,0-1.09,1.49,6,6,0,0,0-.31,1.92,6.1,6.1,0,0,0,.37,2.23,2.77,2.77,0,0,0,1.16,1.43,3.25,3.25,0,0,0,1.7.47,2.85,2.85,0,0,0,1.89-.64A3.28,3.28,0,0,0,34.24,50.25Z"/>
    </g>
    <g>
      <path d="M72.15,50.25l1.33.33A4.46,4.46,0,0,1,72,53.07a4.14,4.14,0,0,1-2.65.86,4.77,4.77,0,0,1-2.64-.66,4.13,4.13,0,0,1-1.54-1.91,6.83,6.83,0,0,1-.53-2.69,5.91,5.91,0,0,1,.6-2.73,4.1,4.1,0,0,1,1.7-1.77,5,5,0,0,1,2.43-.6,4.11,4.11,0,0,1,2.53.77,4,4,0,0,1,1.43,2.15L72,46.79a3.1,3.1,0,0,0-1-1.59,2.7,2.7,0,0,0-1.67-.5,3.24,3.24,0,0,0-1.93.55,2.92,2.92,0,0,0-1.09,1.49A6,6,0,0,0,66,48.67a6.1,6.1,0,0,0,.37,2.23,2.77,2.77,0,0,0,1.16,1.43,3.25,3.25,0,0,0,1.7.47,2.85,2.85,0,0,0,1.89-.64A3.28,3.28,0,0,0,72.15,50.25Z" style="stroke: #fff;stroke-miterlimit: 10;stroke-width: 1.5px"/>
      <path d="M72.15,50.25l1.33.33A4.46,4.46,0,0,1,72,53.07a4.14,4.14,0,0,1-2.65.86,4.77,4.77,0,0,1-2.64-.66,4.13,4.13,0,0,1-1.54-1.91,6.83,6.83,0,0,1-.53-2.69,5.91,5.91,0,0,1,.6-2.73,4.1,4.1,0,0,1,1.7-1.77,5,5,0,0,1,2.43-.6,4.11,4.11,0,0,1,2.53.77,4,4,0,0,1,1.43,2.15L72,46.79a3.1,3.1,0,0,0-1-1.59,2.7,2.7,0,0,0-1.67-.5,3.24,3.24,0,0,0-1.93.55,2.92,2.92,0,0,0-1.09,1.49A6,6,0,0,0,66,48.67a6.1,6.1,0,0,0,.37,2.23,2.77,2.77,0,0,0,1.16,1.43,3.25,3.25,0,0,0,1.7.47,2.85,2.85,0,0,0,1.89-.64A3.28,3.28,0,0,0,72.15,50.25Z"/>
    </g>
    <g>
      <path d="M1.13,53.76v-10H2.45v4.12H7.66V43.74H9v10H7.66V49H2.45v4.72Z" style="stroke: #000;stroke-miterlimit: 10;stroke-width: 1.5px"/>
      <path d="M1.13,53.76v-10H2.45v4.12H7.66V43.74H9v10H7.66V49H2.45v4.72Z" style="fill: #fff"/>
    </g>
    <g>
      <path d="M90,53.76v-10h1.33v4.12h5.21V43.74h1.33v10H96.58V49H91.37v4.72Z" style="stroke: #000;stroke-miterlimit: 10;stroke-width: 1.5px"/>
      <path d="M90,53.76v-10h1.33v4.12h5.21V43.74h1.33v10H96.58V49H91.37v4.72Z" style="fill: #fff"/>
    </g>
  </g>
</svg>
