<svg xmlns="http://www.w3.org/2000/svg" width="512" height="512" viewBox="0 0 100 100">
  <title>C2H4-lewis-structure</title>
  <g>
    <circle cx="47" cy="45.74" r="2" style="fill: #fff"/>
    <circle cx="47" cy="51.74" r="2" style="fill: #fff"/>
    <circle cx="53" cy="45.74" r="2" style="fill: #fff"/>
    <circle cx="53" cy="51.74" r="2" style="fill: #fff"/>
    <circle cx="69.74" cy="35.98" r="2" transform="translate(3.71 78.38) rotate(-60)" style="fill: #fff"/>
    <circle cx="74.93" cy="38.98" r="2" transform="translate(3.71 84.38) rotate(-60)" style="fill: #fff"/>
    <circle cx="69.74" cy="61.49" r="2" transform="translate(-21.4 43.11) rotate(-30)" style="fill: #fff"/>
    <circle cx="74.93" cy="58.49" r="2" transform="translate(-19.21 45.3) rotate(-30)" style="fill: #fff"/>
    <circle cx="24.96" cy="58.49" r="2" transform="translate(-38.17 50.87) rotate(-60)" style="fill: #fff"/>
    <circle cx="30.16" cy="61.49" r="2" transform="translate(-38.17 56.87) rotate(-60)" style="fill: #fff"/>
    <circle cx="24.96" cy="38.98" r="2" transform="translate(-16.14 17.7) rotate(-30)" style="fill: #fff"/>
    <circle cx="30.16" cy="35.98" r="2" transform="translate(-13.95 19.9) rotate(-30)" style="fill: #fff"/>
    <g>
      <path d="M17.13,29.76v-10h1.33v4.12h5.21V19.74H25v10H23.66V25H18.45v4.72Z" style="stroke: #000;stroke-miterlimit: 10;stroke-width: 1.5px"/>
      <path d="M17.13,29.76v-10h1.33v4.12h5.21V19.74H25v10H23.66V25H18.45v4.72Z" style="fill: #fff"/>
    </g>
    <g>
      <path d="M75,29.76v-10h1.33v4.12h5.21V19.74h1.33v10H81.58V25H76.37v4.72Z" style="stroke: #000;stroke-miterlimit: 10;stroke-width: 1.5px"/>
      <path d="M75,29.76v-10h1.33v4.12h5.21V19.74h1.33v10H81.58V25H76.37v4.72Z" style="fill: #fff"/>
    </g>
    <g>
      <path d="M37.24,50.25l1.33.33a4.46,4.46,0,0,1-1.5,2.49,4.14,4.14,0,0,1-2.65.86,4.76,4.76,0,0,1-2.63-.66,4.12,4.12,0,0,1-1.54-1.91,6.81,6.81,0,0,1-.53-2.69,5.9,5.9,0,0,1,.6-2.73A4.1,4.1,0,0,1,32,44.17a5,5,0,0,1,2.43-.6,4.11,4.11,0,0,1,2.53.77,4,4,0,0,1,1.43,2.15l-1.31.31a3.1,3.1,0,0,0-1-1.59,2.7,2.7,0,0,0-1.67-.5,3.24,3.24,0,0,0-1.93.55,2.92,2.92,0,0,0-1.09,1.49,6,6,0,0,0-.31,1.92,6.1,6.1,0,0,0,.37,2.23,2.77,2.77,0,0,0,1.16,1.43,3.25,3.25,0,0,0,1.7.47,2.85,2.85,0,0,0,1.89-.64A3.28,3.28,0,0,0,37.24,50.25Z" style="stroke: #fff;stroke-miterlimit: 10;stroke-width: 1.5px"/>
      <path d="M37.24,50.25l1.33.33a4.46,4.46,0,0,1-1.5,2.49,4.14,4.14,0,0,1-2.65.86,4.76,4.76,0,0,1-2.63-.66,4.12,4.12,0,0,1-1.54-1.91,6.81,6.81,0,0,1-.53-2.69,5.9,5.9,0,0,1,.6-2.73A4.1,4.1,0,0,1,32,44.17a5,5,0,0,1,2.43-.6,4.11,4.11,0,0,1,2.53.77,4,4,0,0,1,1.43,2.15l-1.31.31a3.1,3.1,0,0,0-1-1.59,2.7,2.7,0,0,0-1.67-.5,3.24,3.24,0,0,0-1.93.55,2.92,2.92,0,0,0-1.09,1.49,6,6,0,0,0-.31,1.92,6.1,6.1,0,0,0,.37,2.23,2.77,2.77,0,0,0,1.16,1.43,3.25,3.25,0,0,0,1.7.47,2.85,2.85,0,0,0,1.89-.64A3.28,3.28,0,0,0,37.24,50.25Z"/>
    </g>
    <g>
      <path d="M69.15,50.25l1.33.33A4.46,4.46,0,0,1,69,53.07a4.14,4.14,0,0,1-2.65.86,4.76,4.76,0,0,1-2.63-.66,4.12,4.12,0,0,1-1.54-1.91,6.81,6.81,0,0,1-.53-2.69,5.9,5.9,0,0,1,.6-2.73,4.1,4.1,0,0,1,1.7-1.77,5,5,0,0,1,2.43-.6,4.11,4.11,0,0,1,2.53.77,4,4,0,0,1,1.43,2.15L69,46.79a3.1,3.1,0,0,0-1-1.59,2.7,2.7,0,0,0-1.67-.5,3.24,3.24,0,0,0-1.93.55,2.92,2.92,0,0,0-1.09,1.49A6,6,0,0,0,63,48.67a6.1,6.1,0,0,0,.37,2.23,2.77,2.77,0,0,0,1.16,1.43,3.25,3.25,0,0,0,1.7.47,2.85,2.85,0,0,0,1.89-.64A3.28,3.28,0,0,0,69.15,50.25Z" style="stroke: #fff;stroke-miterlimit: 10;stroke-width: 1.5px"/>
      <path d="M69.15,50.25l1.33.33A4.46,4.46,0,0,1,69,53.07a4.14,4.14,0,0,1-2.65.86,4.76,4.76,0,0,1-2.63-.66,4.12,4.12,0,0,1-1.54-1.91,6.81,6.81,0,0,1-.53-2.69,5.9,5.9,0,0,1,.6-2.73,4.1,4.1,0,0,1,1.7-1.77,5,5,0,0,1,2.43-.6,4.11,4.11,0,0,1,2.53.77,4,4,0,0,1,1.43,2.15L69,46.79a3.1,3.1,0,0,0-1-1.59,2.7,2.7,0,0,0-1.67-.5,3.24,3.24,0,0,0-1.93.55,2.92,2.92,0,0,0-1.09,1.49A6,6,0,0,0,63,48.67a6.1,6.1,0,0,0,.37,2.23,2.77,2.77,0,0,0,1.16,1.43,3.25,3.25,0,0,0,1.7.47,2.85,2.85,0,0,0,1.89-.64A3.28,3.28,0,0,0,69.15,50.25Z"/>
    </g>
    <g>
      <path d="M17.13,77.76v-10h1.33v4.12h5.21V67.74H25v10H23.66V73H18.45v4.72Z" style="stroke: #000;stroke-miterlimit: 10;stroke-width: 1.5px"/>
      <path d="M17.13,77.76v-10h1.33v4.12h5.21V67.74H25v10H23.66V73H18.45v4.72Z" style="fill: #fff"/>
    </g>
    <g>
      <path d="M75,77.76v-10h1.33v4.12h5.21V67.74h1.33v10H81.58V73H76.37v4.72Z" style="stroke: #000;stroke-miterlimit: 10;stroke-width: 1.5px"/>
      <path d="M75,77.76v-10h1.33v4.12h5.21V67.74h1.33v10H81.58V73H76.37v4.72Z" style="fill: #fff"/>
    </g>
  </g>
</svg>
