<svg xmlns="http://www.w3.org/2000/svg" width="512" height="512" viewBox="0 0 100 100">
  <title>C2H6-extended-structure</title>
  <g>
    <g>
      <path d="M33.13,27.76v-10h1.33v4.12h5.21V17.74H41v10H39.66V23H34.45v4.72Z" style="stroke: #000;stroke-miterlimit: 10;stroke-width: 1.5px"/>
      <path d="M33.13,27.76v-10h1.33v4.12h5.21V17.74H41v10H39.66V23H34.45v4.72Z" style="fill: #fff"/>
    </g>
    <g>
      <path d="M59,27.76v-10h1.33v4.12h5.21V17.74h1.33v10H65.58V23H60.37v4.72Z" style="stroke: #000;stroke-miterlimit: 10;stroke-width: 1.5px"/>
      <path d="M59,27.76v-10h1.33v4.12h5.21V17.74h1.33v10H65.58V23H60.37v4.72Z" style="fill: #fff"/>
    </g>
    <g>
      <path d="M40.24,50.25l1.33.33a4.46,4.46,0,0,1-1.5,2.49,4.14,4.14,0,0,1-2.65.86,4.76,4.76,0,0,1-2.64-.66,4.12,4.12,0,0,1-1.54-1.91,6.82,6.82,0,0,1-.53-2.69,5.9,5.9,0,0,1,.6-2.73A4.1,4.1,0,0,1,35,44.17a5,5,0,0,1,2.43-.61,4.11,4.11,0,0,1,2.53.77,4,4,0,0,1,1.43,2.15l-1.31.31a3.1,3.1,0,0,0-1-1.59,2.7,2.7,0,0,0-1.67-.5,3.24,3.24,0,0,0-1.93.55,2.93,2.93,0,0,0-1.09,1.49,6,6,0,0,0-.31,1.92,6.11,6.11,0,0,0,.37,2.23,2.78,2.78,0,0,0,1.16,1.42,3.25,3.25,0,0,0,1.7.47,2.85,2.85,0,0,0,1.89-.64A3.28,3.28,0,0,0,40.24,50.25Z" style="stroke: #fff;stroke-miterlimit: 10;stroke-width: 1.5px"/>
      <path d="M40.24,50.25l1.33.33a4.46,4.46,0,0,1-1.5,2.49,4.14,4.14,0,0,1-2.65.86,4.76,4.76,0,0,1-2.64-.66,4.12,4.12,0,0,1-1.54-1.91,6.82,6.82,0,0,1-.53-2.69,5.9,5.9,0,0,1,.6-2.73A4.1,4.1,0,0,1,35,44.17a5,5,0,0,1,2.43-.61,4.11,4.11,0,0,1,2.53.77,4,4,0,0,1,1.43,2.15l-1.31.31a3.1,3.1,0,0,0-1-1.59,2.7,2.7,0,0,0-1.67-.5,3.24,3.24,0,0,0-1.93.55,2.93,2.93,0,0,0-1.09,1.49,6,6,0,0,0-.31,1.92,6.11,6.11,0,0,0,.37,2.23,2.78,2.78,0,0,0,1.16,1.42,3.25,3.25,0,0,0,1.7.47,2.85,2.85,0,0,0,1.89-.64A3.28,3.28,0,0,0,40.24,50.25Z"/>
    </g>
    <g>
      <path d="M66.15,50.25l1.33.33A4.46,4.46,0,0,1,66,53.07a4.14,4.14,0,0,1-2.65.86,4.76,4.76,0,0,1-2.64-.66,4.12,4.12,0,0,1-1.54-1.91,6.82,6.82,0,0,1-.53-2.69,5.9,5.9,0,0,1,.6-2.73,4.1,4.1,0,0,1,1.7-1.77,5,5,0,0,1,2.43-.61,4.11,4.11,0,0,1,2.53.77,4,4,0,0,1,1.43,2.15L66,46.79a3.1,3.1,0,0,0-1-1.59,2.7,2.7,0,0,0-1.67-.5,3.24,3.24,0,0,0-1.93.55,2.93,2.93,0,0,0-1.09,1.49A6,6,0,0,0,60,48.67a6.11,6.11,0,0,0,.37,2.23,2.78,2.78,0,0,0,1.16,1.42,3.25,3.25,0,0,0,1.7.47,2.85,2.85,0,0,0,1.89-.64A3.28,3.28,0,0,0,66.15,50.25Z" style="stroke: #fff;stroke-miterlimit: 10;stroke-width: 1.5px"/>
      <path d="M66.15,50.25l1.33.33A4.46,4.46,0,0,1,66,53.07a4.14,4.14,0,0,1-2.65.86,4.76,4.76,0,0,1-2.64-.66,4.12,4.12,0,0,1-1.54-1.91,6.82,6.82,0,0,1-.53-2.69,5.9,5.9,0,0,1,.6-2.73,4.1,4.1,0,0,1,1.7-1.77,5,5,0,0,1,2.43-.61,4.11,4.11,0,0,1,2.53.77,4,4,0,0,1,1.43,2.15L66,46.79a3.1,3.1,0,0,0-1-1.59,2.7,2.7,0,0,0-1.67-.5,3.24,3.24,0,0,0-1.93.55,2.93,2.93,0,0,0-1.09,1.49A6,6,0,0,0,60,48.67a6.11,6.11,0,0,0,.37,2.23,2.78,2.78,0,0,0,1.16,1.42,3.25,3.25,0,0,0,1.7.47,2.85,2.85,0,0,0,1.89-.64A3.28,3.28,0,0,0,66.15,50.25Z"/>
    </g>
    <g>
      <path d="M33.13,79.76v-10h1.33v4.12h5.21V69.74H41v10H39.66V75H34.45v4.72Z" style="stroke: #000;stroke-miterlimit: 10;stroke-width: 1.5px"/>
      <path d="M33.13,79.76v-10h1.33v4.12h5.21V69.74H41v10H39.66V75H34.45v4.72Z" style="fill: #fff"/>
    </g>
    <g>
      <path d="M59,79.76v-10h1.33v4.12h5.21V69.74h1.33v10H65.58V75H60.37v4.72Z" style="stroke: #000;stroke-miterlimit: 10;stroke-width: 1.5px"/>
      <path d="M59,79.76v-10h1.33v4.12h5.21V69.74h1.33v10H65.58V75H60.37v4.72Z" style="fill: #fff"/>
    </g>
    <g>
      <path d="M7.13,53.76v-10H8.45v4.12h5.21V43.74H15v10H13.66V49H8.45v4.72Z" style="stroke: #000;stroke-miterlimit: 10;stroke-width: 1.5px"/>
      <path d="M7.13,53.76v-10H8.45v4.12h5.21V43.74H15v10H13.66V49H8.45v4.72Z" style="fill: #fff"/>
    </g>
    <g>
      <path d="M84,53.76v-10h1.33v4.12h5.21V43.74h1.33v10H90.58V49H85.37v4.72Z" style="stroke: #000;stroke-miterlimit: 10;stroke-width: 1.5px"/>
      <path d="M84,53.76v-10h1.33v4.12h5.21V43.74h1.33v10H90.58V49H85.37v4.72Z" style="fill: #fff"/>
    </g>
    <line x1="46" y1="48.74" x2="54" y2="48.74" style="fill: none;stroke: #fff;stroke-linecap: round;stroke-miterlimit: 10;stroke-width: 2px"/>
    <line x1="71.83" y1="48.74" x2="79.83" y2="48.74" style="fill: none;stroke: #fff;stroke-linecap: round;stroke-miterlimit: 10;stroke-width: 2px"/>
    <line x1="20.06" y1="48.74" x2="28.06" y2="48.74" style="fill: none;stroke: #fff;stroke-linecap: round;stroke-miterlimit: 10;stroke-width: 2px"/>
    <line x1="37.06" y1="31.65" x2="37.06" y2="39.65" style="fill: none;stroke: #fff;stroke-linecap: round;stroke-miterlimit: 10;stroke-width: 2px"/>
    <line x1="62.83" y1="39.65" x2="62.83" y2="31.65" style="fill: none;stroke: #fff;stroke-linecap: round;stroke-miterlimit: 10;stroke-width: 2px"/>
    <line x1="62.83" y1="65.74" x2="62.83" y2="57.74" style="fill: none;stroke: #fff;stroke-linecap: round;stroke-miterlimit: 10;stroke-width: 2px"/>
    <line x1="37.06" y1="65.74" x2="37.06" y2="57.74" style="fill: none;stroke: #fff;stroke-linecap: round;stroke-miterlimit: 10;stroke-width: 2px"/>
  </g>
</svg>
