<svg xmlns="http://www.w3.org/2000/svg" width="512" height="512" viewBox="0 0 100 100">
  <title>CH4-lewis-structure</title>
  <g>
    <circle cx="62.98" cy="45.74" r="2" style="fill: #fff"/>
    <circle cx="62.98" cy="51.74" r="2" style="fill: #fff"/>
    <circle cx="37.04" cy="45.74" r="2" style="fill: #fff"/>
    <circle cx="37.04" cy="51.74" r="2" style="fill: #fff"/>
    <circle cx="47.04" cy="35.74" r="2" style="fill: #fff"/>
    <circle cx="53.04" cy="35.74" r="2" style="fill: #fff"/>
    <circle cx="47.04" cy="61.74" r="2" style="fill: #fff"/>
    <circle cx="53.04" cy="61.74" r="2" style="fill: #fff"/>
    <g>
      <path d="M46.11,27.76v-10h1.33v4.12h5.21V17.74H54v10H52.64V23H47.43v4.72Z" style="stroke: #000;stroke-miterlimit: 10;stroke-width: 1.5px"/>
      <path d="M46.11,27.76v-10h1.33v4.12h5.21V17.74H54v10H52.64V23H47.43v4.72Z" style="fill: #fff"/>
    </g>
    <g>
      <path d="M53.22,50.25l1.33.33A4.46,4.46,0,0,1,53,53.07a4.14,4.14,0,0,1-2.65.86,4.76,4.76,0,0,1-2.63-.66,4.12,4.12,0,0,1-1.54-1.91,6.81,6.81,0,0,1-.53-2.69,5.9,5.9,0,0,1,.6-2.73A4.09,4.09,0,0,1,48,44.17a5,5,0,0,1,2.43-.61,4.11,4.11,0,0,1,2.53.77,4,4,0,0,1,1.43,2.15l-1.31.31a3.1,3.1,0,0,0-1-1.59,2.7,2.7,0,0,0-1.67-.5,3.24,3.24,0,0,0-1.93.55,2.93,2.93,0,0,0-1.09,1.49,6,6,0,0,0-.31,1.92,6.1,6.1,0,0,0,.37,2.23,2.77,2.77,0,0,0,1.16,1.42,3.25,3.25,0,0,0,1.7.47,2.85,2.85,0,0,0,1.89-.64A3.28,3.28,0,0,0,53.22,50.25Z" style="stroke: #fff;stroke-miterlimit: 10;stroke-width: 1.5px"/>
      <path d="M53.22,50.25l1.33.33A4.46,4.46,0,0,1,53,53.07a4.14,4.14,0,0,1-2.65.86,4.76,4.76,0,0,1-2.63-.66,4.12,4.12,0,0,1-1.54-1.91,6.81,6.81,0,0,1-.53-2.69,5.9,5.9,0,0,1,.6-2.73A4.1,4.1,0,0,1,48,44.17a5,5,0,0,1,2.43-.6,4.11,4.11,0,0,1,2.53.77,4,4,0,0,1,1.43,2.15l-1.31.31a3.1,3.1,0,0,0-1-1.59,2.7,2.7,0,0,0-1.67-.5,3.24,3.24,0,0,0-1.93.55,2.92,2.92,0,0,0-1.09,1.49,6,6,0,0,0-.31,1.92,6.1,6.1,0,0,0,.37,2.23,2.77,2.77,0,0,0,1.16,1.43,3.25,3.25,0,0,0,1.7.47,2.85,2.85,0,0,0,1.89-.64A3.28,3.28,0,0,0,53.22,50.25Z"/>
    </g>
    <g>
      <path d="M46.11,79.76v-10h1.33v4.12h5.21V69.74H54v10H52.64V75H47.43v4.72Z" style="stroke: #000;stroke-miterlimit: 10;stroke-width: 1.5px"/>
      <path d="M46.11,79.76v-10h1.33v4.12h5.21V69.74H54v10H52.64V75H47.43v4.72Z" style="fill: #fff"/>
    </g>
    <g>
      <path d="M20.11,53.76v-10h1.33v4.12h5.21V43.74H28v10H26.64V49H21.43v4.72Z" style="stroke: #000;stroke-miterlimit: 10;stroke-width: 1.5px"/>
      <path d="M20.11,53.76v-10h1.33v4.12h5.21V43.74H28v10H26.64V49H21.43v4.72Z" style="fill: #fff"/>
    </g>
    <g>
      <path d="M72,53.76v-10h1.33v4.12h5.21V43.74h1.33v10H78.56V49H73.35v4.72Z" style="stroke: #000;stroke-miterlimit: 10;stroke-width: 1.5px"/>
      <path d="M72,53.76v-10h1.33v4.12h5.21V43.74h1.33v10H78.56V49H73.35v4.72Z" style="fill: #fff"/>
    </g>
  </g>
</svg>
