<?xml version="1.0" encoding="utf-8"?>
<svg width="32" height="33" viewBox="0 0 32 33" fill="none" xmlns="http://www.w3.org/2000/svg">
  <defs>
    <linearGradient id="h" x1="200.65" x2="200.65" y1="863.29" y2="781.64" gradientTransform="matrix(.33073 0 0 .33073 57.695 -319.6)" gradientUnits="userSpaceOnUse">
      <stop stop-color="#fff" offset="0"/>
      <stop stop-color="#f7f7ad" offset="1"/>
    </linearGradient>
    <linearGradient id="f" x1="211.29" x2="211.29" y1="1017.4" y2="825.66" gradientTransform="matrix(.33073 0 0 .33073 57.695 -319.6)" gradientUnits="userSpaceOnUse">
      <stop stop-color="#f7f7ad" offset="0"/>
      <stop stop-color="#fbf6df" offset="1"/>
    </linearGradient>
    <linearGradient id="g" x1="211.29" x2="211.29" y1="1017.2" y2="826" gradientTransform="matrix(.33073 0 0 -.33073 57.695 224.47)" gradientUnits="userSpaceOnUse">
      <stop stop-color="#f7f7ad" offset="0"/>
      <stop stop-color="#fbf6df" offset="1"/>
    </linearGradient>
    <linearGradient id="i" x1="200.65" x2="200.65" y1="861.74" y2="778.74" gradientTransform="matrix(.38158 0 0 -.38158 47.525 266.29)" gradientUnits="userSpaceOnUse">
      <stop stop-color="#fff" offset="0"/>
      <stop stop-color="#f7f7ad" offset="1"/>
    </linearGradient>
    <radialGradient id="j" cx="254" cy="154.12" r="139.13" gradientTransform="matrix(0.023788, 0, 0, 0.023788, 10.119435, 11.209426)" gradientUnits="userSpaceOnUse">
      <stop stop-color="#fbf6df" offset="0"/>
      <stop stop-color="#fff" offset="1"/>
    </radialGradient>
  </defs>
  <g>
    <path d="M 19.471 14.876 C 19.471 16.704 17.99 18.185 16.162 18.185 C 14.334 18.185 12.852 16.704 12.852 14.876 C 12.852 13.048 14.334 11.566 16.162 11.566 C 17.99 11.566 19.471 13.048 19.471 14.876 L 19.471 14.876 Z" fill-rule="evenodd" style="paint-order:normal" fill="url(#j)"/>
    <g transform="matrix(0.248546, 0, 0, 0.253776, -14.899301, 28.539177)" style="">
      <path d="m123.84-54.727a7.162 7.162 0 0 0 -7.1618 7.1618 7.162 7.162 0 0 0 7.1618 7.1618 7.162 7.162 0 0 0 7.1618 -7.1618 7.162 7.162 0 0 0 -7.1618 -7.1618zm0 1.0242a6.1374 6.1374 0 0 1 6.1376 6.1376 6.1374 6.1374 0 0 1 -6.1376 6.1376 6.1374 6.1374 0 0 1 -6.1376 -6.1376 6.1374 6.1374 0 0 1 6.1376 -6.1376z" fill-rule="evenodd" style="paint-order:normal" fill="url(#h)"/>
      <path d="m187.3-47.565h-3.0391a60.42 60.42 0 0 1 -60.421 60.421 60.42 60.42 0 0 1 -60.421 -60.421h-3.0391a63.46 63.46 0 0 0 63.46 63.46 63.46 63.46 0 0 0 63.46 -63.46z" fill-rule="evenodd" style="paint-order:normal" fill="url(#f)"/>
      <g transform="matrix(.36121 0 0 .36192 51.599 -345.25)" fill="#64dd17" stroke="#f7f7ad">
        <path d="m164.54 954.68c-19.654 21.868-37.335-5.8099-47.962 12.896 10.886-18.557-21.924-20.03-12.813-47.984" stroke-width="2.1953"/>
        <path d="m143.15 920.94c-20.486 13.331-28.728-12.698-41.287 0.0358 12.734-12.558-13.295-20.8 0.0358-41.287" stroke-width="1.825"/>
        <path d="m133.13 889.36c-19.349 6.3066-20.369-16.403-33.213-8.8685 12.947-7.3559-6.2101-19.594 8.9261-33.197" stroke-width="1.5195"/>
        <path d="m131.99 861.73c-16.894 0.90092-12.826-17.554-24.761-14.267 11.979-3.1208-0.77085-17.069 14.31-24.736" stroke-width="1.2632"/>
        <path d="m137.23 839.25c-13.713-2.9017-6.5006-16.799-16.757-16.728 10.256 0.0712 3.0435-13.826 16.757-16.728" stroke-width="1.0466"/>
        <path d="m146.06 822.38c-10.387-5.2805-1.6054-14.888-9.8562-17.037 8.2201 2.2638 5.4186-10.447 17.054-9.8266" stroke-width=".87003"/>
        <path d="m156.71 810.71c-7.216-6.4853 1.9172-12.32-4.2554-15.826 6.1232 3.5922 6.6093-7.2345 15.834-4.2279" stroke-width=".72441"/>
      </g>
      <g transform="matrix(.31281 .18096 -.1806 .31343 209.83 -341.56)" fill="#c6ff00" stroke="#f7f7ad">
        <path d="m164.54 954.68c-19.654 21.868-37.335-5.8099-47.962 12.896 10.886-18.557-21.924-20.03-12.813-47.984" stroke-width="2.1953"/>
        <path d="m143.15 920.94c-20.486 13.331-28.728-12.698-41.287 0.0358 12.734-12.558-13.295-20.8 0.0358-41.287" stroke-width="1.825"/>
        <path d="m133.13 889.36c-19.349 6.3066-20.369-16.403-33.213-8.8685 12.947-7.3559-6.2101-19.594 8.9261-33.197" stroke-width="1.5195"/>
        <path d="m131.99 861.73c-16.894 0.90092-12.826-17.554-24.761-14.267 11.979-3.1208-0.77085-17.069 14.31-24.736" stroke-width="1.2632"/>
        <path d="m137.23 839.25c-13.713-2.9017-6.5006-16.799-16.757-16.728 10.256 0.0712 3.0435-13.826 16.757-16.728" stroke-width="1.0466"/>
        <path d="m146.06 822.38c-10.387-5.2805-1.6054-14.888-9.8562-17.037 8.2201 2.2638 5.4186-10.447 17.054-9.8266" stroke-width=".87003"/>
        <path d="m156.71 810.71c-7.216-6.4853 1.9172-12.32-4.2554-15.826 6.1232 3.5922 6.6093-7.2345 15.834-4.2279" stroke-width=".72441"/>
      </g>
      <g transform="matrix(.1806 .31343 -.31281 .18096 345.02 -259.09)" fill="#ff9800" stroke="#f7f7ad">
        <path d="m164.54 954.68c-19.654 21.868-37.335-5.8099-47.962 12.896 10.886-18.557-21.924-20.03-12.813-47.984" stroke-width="2.1953"/>
        <path d="m143.15 920.94c-20.486 13.331-28.728-12.698-41.287 0.0358 12.734-12.558-13.295-20.8 0.0358-41.287" stroke-width="1.825"/>
        <path d="m133.13 889.36c-19.349 6.3066-20.369-16.403-33.213-8.8685 12.947-7.3559-6.2101-19.594 8.9261-33.197" stroke-width="1.5195"/>
        <path d="m131.99 861.73c-16.894 0.90092-12.826-17.554-24.761-14.267 11.979-3.1208-0.77085-17.069 14.31-24.736" stroke-width="1.2632"/>
        <path d="m137.23 839.25c-13.713-2.9017-6.5006-16.799-16.757-16.728 10.256 0.0712 3.0435-13.826 16.757-16.728" stroke-width="1.0466"/>
        <path d="m146.06 822.38c-10.387-5.2805-1.6054-14.888-9.8562-17.037 8.2201 2.2638 5.4186-10.447 17.054-9.8266" stroke-width=".87003"/>
        <path d="m156.71 810.71c-7.216-6.4853 1.9172-12.32-4.2554-15.826 6.1232 3.5922 6.6093-7.2345 15.834-4.2279" stroke-width=".72441"/>
      </g>
      <g transform="matrix(0 .36192 -.36121 0 420.94 -119.95)" fill="#ff4081" stroke="#f7f7ad">
        <path d="m164.54 954.68c-19.654 21.868-37.335-5.8099-47.962 12.896 10.886-18.557-21.924-20.03-12.813-47.984" stroke-width="2.1953"/>
        <path d="m143.15 920.94c-20.486 13.331-28.728-12.698-41.287 0.0358 12.734-12.558-13.295-20.8 0.0358-41.287" stroke-width="1.825"/>
        <path d="m133.13 889.36c-19.349 6.3066-20.369-16.403-33.213-8.8685 12.947-7.3559-6.2101-19.594 8.9261-33.197" stroke-width="1.5195"/>
        <path d="m131.99 861.73c-16.894 0.90092-12.826-17.554-24.761-14.267 11.979-3.1208-0.77085-17.069 14.31-24.736" stroke-width="1.2632"/>
        <path d="m137.23 839.25c-13.713-2.9017-6.5006-16.799-16.757-16.728 10.256 0.0712 3.0435-13.826 16.757-16.728" stroke-width="1.0466"/>
        <path d="m146.06 822.38c-10.387-5.2805-1.6054-14.888-9.8562-17.037 8.2201 2.2638 5.4186-10.447 17.054-9.8266" stroke-width=".87003"/>
        <path d="m156.71 810.71c-7.216-6.4853 1.9172-12.32-4.2554-15.826 6.1232 3.5922 6.6093-7.2345 15.834-4.2279" stroke-width=".72441"/>
      </g>
      <g transform="matrix(-.1806 .31343 -.31281 -.18096 417.26 38.591)" fill="#ab47bc" stroke="#f7f7ad">
        <path d="m164.54 954.68c-19.654 21.868-37.335-5.8099-47.962 12.896 10.886-18.557-21.924-20.03-12.813-47.984" stroke-width="2.1953"/>
        <path d="m143.15 920.94c-20.486 13.331-28.728-12.698-41.287 0.0358 12.734-12.558-13.295-20.8 0.0358-41.287" stroke-width="1.825"/>
        <path d="m133.13 889.36c-19.349 6.3066-20.369-16.403-33.213-8.8685 12.947-7.3559-6.2101-19.594 8.9261-33.197" stroke-width="1.5195"/>
        <path d="m131.99 861.73c-16.894 0.90092-12.826-17.554-24.761-14.267 11.979-3.1208-0.77085-17.069 14.31-24.736" stroke-width="1.2632"/>
        <path d="m137.23 839.25c-13.713-2.9017-6.5006-16.799-16.757-16.728 10.256 0.0712 3.0435-13.826 16.757-16.728" stroke-width="1.0466"/>
        <path d="m146.06 822.38c-10.387-5.2805-1.6054-14.888-9.8562-17.037 8.2201 2.2638 5.4186-10.447 17.054-9.8266" stroke-width=".87003"/>
        <path d="m156.71 810.71c-7.216-6.4853 1.9172-12.32-4.2554-15.826 6.1232 3.5922 6.6093-7.2345 15.834-4.2279" stroke-width=".72441"/>
      </g>
      <g transform="matrix(-.31281 .18096 -.1806 -.31343 334.95 174.05)" fill="#d500f9" stroke="#f7f7ad">
        <path d="m164.54 954.68c-19.654 21.868-37.335-5.8099-47.962 12.896 10.886-18.557-21.924-20.03-12.813-47.984" stroke-width="2.1953"/>
        <path d="m143.15 920.94c-20.486 13.331-28.728-12.698-41.287 0.0358 12.734-12.558-13.295-20.8 0.0358-41.287" stroke-width="1.825"/>
        <path d="m133.13 889.36c-19.349 6.3066-20.369-16.403-33.213-8.8685 12.947-7.3559-6.2101-19.594 8.9261-33.197" stroke-width="1.5195"/>
        <path d="m131.99 861.73c-16.894 0.90092-12.826-17.554-24.761-14.267 11.979-3.1208-0.77085-17.069 14.31-24.736" stroke-width="1.2632"/>
        <path d="m137.23 839.25c-13.713-2.9017-6.5006-16.799-16.757-16.728 10.256 0.0712 3.0435-13.826 16.757-16.728" stroke-width="1.0466"/>
        <path d="m146.06 822.38c-10.387-5.2805-1.6054-14.888-9.8562-17.037 8.2201 2.2638 5.4186-10.447 17.054-9.8266" stroke-width=".87003"/>
        <path d="m156.71 810.71c-7.216-6.4853 1.9172-12.32-4.2554-15.826 6.1232 3.5922 6.6093-7.2345 15.834-4.2279" stroke-width=".72441"/>
      </g>
      <g transform="matrix(-.36121 0 0 -.36192 196.08 250.12)" fill="#00b8d4" stroke="#f7f7ad">
        <path d="m164.54 954.68c-19.654 21.868-37.335-5.8099-47.962 12.896 10.886-18.557-21.924-20.03-12.813-47.984" stroke-width="2.1953"/>
        <path d="m143.15 920.94c-20.486 13.331-28.728-12.698-41.287 0.0358 12.734-12.558-13.295-20.8 0.0358-41.287" stroke-width="1.825"/>
        <path d="m133.13 889.36c-19.349 6.3066-20.369-16.403-33.213-8.8685 12.947-7.3559-6.2101-19.594 8.9261-33.197" stroke-width="1.5195"/>
        <path d="m131.99 861.73c-16.894 0.90092-12.826-17.554-24.761-14.267 11.979-3.1208-0.77085-17.069 14.31-24.736" stroke-width="1.2632"/>
        <path d="m137.23 839.25c-13.713-2.9017-6.5006-16.799-16.757-16.728 10.256 0.0712 3.0435-13.826 16.757-16.728" stroke-width="1.0466"/>
        <path d="m146.06 822.38c-10.387-5.2805-1.6054-14.888-9.8562-17.037 8.2201 2.2638 5.4186-10.447 17.054-9.8266" stroke-width=".87003"/>
        <path d="m156.71 810.71c-7.216-6.4853 1.9172-12.32-4.2554-15.826 6.1232 3.5922 6.6093-7.2345 15.834-4.2279" stroke-width=".72441"/>
      </g>
      <g transform="matrix(-.31281 -.18096 .1806 -.31343 37.853 246.43)" fill="#ffee58" stroke="#f7f7ad">
        <path d="m164.54 954.68c-19.654 21.868-37.335-5.8099-47.962 12.896 10.886-18.557-21.924-20.03-12.813-47.984" stroke-width="2.1953"/>
        <path d="m143.15 920.94c-20.486 13.331-28.728-12.698-41.287 0.0358 12.734-12.558-13.295-20.8 0.0358-41.287" stroke-width="1.825"/>
        <path d="m133.13 889.36c-19.349 6.3066-20.369-16.403-33.213-8.8685 12.947-7.3559-6.2101-19.594 8.9261-33.197" stroke-width="1.5195"/>
        <path d="m131.99 861.73c-16.894 0.90092-12.826-17.554-24.761-14.267 11.979-3.1208-0.77085-17.069 14.31-24.736" stroke-width="1.2632"/>
        <path d="m137.23 839.25c-13.713-2.9017-6.5006-16.799-16.757-16.728 10.256 0.0712 3.0435-13.826 16.757-16.728" stroke-width="1.0466"/>
        <path d="m146.06 822.38c-10.387-5.2805-1.6054-14.888-9.8562-17.037 8.2201 2.2638 5.4186-10.447 17.054-9.8266" stroke-width=".87003"/>
        <path d="m156.71 810.71c-7.216-6.4853 1.9172-12.32-4.2554-15.826 6.1232 3.5922 6.6093-7.2345 15.834-4.2279" stroke-width=".72441"/>
      </g>
      <g transform="matrix(-.1806 -.31343 .31281 -.18096 -97.335 163.96)" fill="#ffd600" stroke="#f7f7ad">
        <path d="m164.54 954.68c-19.654 21.868-37.335-5.8099-47.962 12.896 10.886-18.557-21.924-20.03-12.813-47.984" stroke-width="2.1953"/>
        <path d="m143.15 920.94c-20.486 13.331-28.728-12.698-41.287 0.0358 12.734-12.558-13.295-20.8 0.0358-41.287" stroke-width="1.825"/>
        <path d="m133.13 889.36c-19.349 6.3066-20.369-16.403-33.213-8.8685 12.947-7.3559-6.2101-19.594 8.9261-33.197" stroke-width="1.5195"/>
        <path d="m131.99 861.73c-16.894 0.90092-12.826-17.554-24.761-14.267 11.979-3.1208-0.77085-17.069 14.31-24.736" stroke-width="1.2632"/>
        <path d="m137.23 839.25c-13.713-2.9017-6.5006-16.799-16.757-16.728 10.256 0.0712 3.0435-13.826 16.757-16.728" stroke-width="1.0466"/>
        <path d="m146.06 822.38c-10.387-5.2805-1.6054-14.888-9.8562-17.037 8.2201 2.2638 5.4186-10.447 17.054-9.8266" stroke-width=".87003"/>
        <path d="m156.71 810.71c-7.216-6.4853 1.9172-12.32-4.2554-15.826 6.1232 3.5922 6.6093-7.2345 15.834-4.2279" stroke-width=".72441"/>
      </g>
      <g transform="matrix(0 -.36192 .36121 0 -173.26 24.819)" fill="#e57373" stroke="#f7f7ad">
        <path d="m164.54 954.68c-19.654 21.868-37.335-5.8099-47.962 12.896 10.886-18.557-21.924-20.03-12.813-47.984" stroke-width="2.1953"/>
        <path d="m143.15 920.94c-20.486 13.331-28.728-12.698-41.287 0.0358 12.734-12.558-13.295-20.8 0.0358-41.287" stroke-width="1.825"/>
        <path d="m133.13 889.36c-19.349 6.3066-20.369-16.403-33.213-8.8685 12.947-7.3559-6.2101-19.594 8.9261-33.197" stroke-width="1.5195"/>
        <path d="m131.99 861.73c-16.894 0.90092-12.826-17.554-24.761-14.267 11.979-3.1208-0.77085-17.069 14.31-24.736" stroke-width="1.2632"/>
        <path d="m137.23 839.25c-13.713-2.9017-6.5006-16.799-16.757-16.728 10.256 0.0712 3.0435-13.826 16.757-16.728" stroke-width="1.0466"/>
        <path d="m146.06 822.38c-10.387-5.2805-1.6054-14.888-9.8562-17.037 8.2201 2.2638 5.4186-10.447 17.054-9.8266" stroke-width=".87003"/>
        <path d="m156.71 810.71c-7.216-6.4853 1.9172-12.32-4.2554-15.826 6.1232 3.5922 6.6093-7.2345 15.834-4.2279" stroke-width=".72441"/>
      </g>
      <g transform="matrix(.1806 -.31343 .31281 .18096 -169.58 -133.72)" fill="#ff80ab" stroke="#f7f7ad">
        <path d="m164.54 954.68c-19.654 21.868-37.335-5.8099-47.962 12.896 10.886-18.557-21.924-20.03-12.813-47.984" stroke-width="2.1953"/>
        <path d="m143.15 920.94c-20.486 13.331-28.728-12.698-41.287 0.0358 12.734-12.558-13.295-20.8 0.0358-41.287" stroke-width="1.825"/>
        <path d="m133.13 889.36c-19.349 6.3066-20.369-16.403-33.213-8.8685 12.947-7.3559-6.2101-19.594 8.9261-33.197" stroke-width="1.5195"/>
        <path d="m131.99 861.73c-16.894 0.90092-12.826-17.554-24.761-14.267 11.979-3.1208-0.77085-17.069 14.31-24.736" stroke-width="1.2632"/>
        <path d="m137.23 839.25c-13.713-2.9017-6.5006-16.799-16.757-16.728 10.256 0.0712 3.0435-13.826 16.757-16.728" stroke-width="1.0466"/>
        <path d="m146.06 822.38c-10.387-5.2805-1.6054-14.888-9.8562-17.037 8.2201 2.2638 5.4186-10.447 17.054-9.8266" stroke-width=".87003"/>
        <path d="m156.71 810.71c-7.216-6.4853 1.9172-12.32-4.2554-15.826 6.1232 3.5922 6.6093-7.2345 15.834-4.2279" stroke-width=".72441"/>
      </g>
      <g transform="matrix(.31281 -.18096 .1806 .31343 -87.272 -269.18)" fill="#69f0ae" stroke="#f7f7ad">
        <path d="m164.54 954.68c-19.654 21.868-37.335-5.8099-47.962 12.896 10.886-18.557-21.924-20.03-12.813-47.984" stroke-width="2.1953"/>
        <path d="m143.15 920.94c-20.486 13.331-28.728-12.698-41.287 0.0358 12.734-12.558-13.295-20.8 0.0358-41.287" stroke-width="1.825"/>
        <path d="m133.13 889.36c-19.349 6.3066-20.369-16.403-33.213-8.8685 12.947-7.3559-6.2101-19.594 8.9261-33.197" stroke-width="1.5195"/>
        <path d="m131.99 861.73c-16.894 0.90092-12.826-17.554-24.761-14.267 11.979-3.1208-0.77085-17.069 14.31-24.736" stroke-width="1.2632"/>
        <path d="m137.23 839.25c-13.713-2.9017-6.5006-16.799-16.757-16.728 10.256 0.0712 3.0435-13.826 16.757-16.728" stroke-width="1.0466"/>
        <path d="m146.06 822.38c-10.387-5.2805-1.6054-14.888-9.8562-17.037 8.2201 2.2638 5.4186-10.447 17.054-9.8266" stroke-width=".87003"/>
        <path d="m156.71 810.71c-7.216-6.4853 1.9172-12.32-4.2554-15.826 6.1232 3.5922 6.6093-7.2345 15.834-4.2279" stroke-width=".72441"/>
      </g>
      <path d="m123.84-63.822a16.257 16.257 0 0 0 -16.257 16.257 16.257 16.257 0 0 0 16.257 16.257 16.257 16.257 0 0 0 16.257 -16.257 16.257 16.257 0 0 0 -16.257 -16.257zm0 0.77853a15.479 15.479 0 0 1 15.479 15.479 15.479 15.479 0 0 1 -15.479 15.479 15.479 15.479 0 0 1 -15.479 -15.479 15.479 15.479 0 0 1 15.479 -15.479z" fill-rule="evenodd" style="paint-order:normal" fill="#f7f7ad"/>
      <path d="m60.381-47.565h3.0391a60.42 60.42 0 0 1 60.421 -60.421 60.42 60.42 0 0 1 60.421 60.421h3.0391a63.46 63.46 0 0 0 -63.46 -63.46 63.46 63.46 0 0 0 -63.46 63.46z" fill-rule="evenodd" style="paint-order:normal" fill="url(#g)"/>
      <path d="m123.84-39.302a8.2631 8.2631 0 0 1 -8.263 -8.263 8.2631 8.2631 0 0 1 8.263 -8.263 8.2631 8.2631 0 0 1 8.263 8.263 8.2631 8.2631 0 0 1 -8.263 8.263zm0-1.1817a7.081 7.081 0 0 0 7.0813 -7.0813 7.081 7.081 0 0 0 -7.0813 -7.0813 7.081 7.081 0 0 0 -7.0813 7.0813 7.081 7.081 0 0 0 7.0813 7.0813z" fill-rule="evenodd" style="paint-order:normal" fill="url(#i)"/>
      <path d="m122.1-43.133c-0.13973-0.0132-0.21302-0.0255-0.3274-0.05497-0.25999-0.06701-0.52331-0.1809-0.79716-0.3448-0.0987-0.05907-0.14793-0.09264-0.24066-0.16406-0.3085-0.23761-0.57876-0.53711-0.75695-0.83884-0.0426-0.07214-0.13224-0.25508-0.18062-0.36863-0.18682-0.43845-0.29919-0.8814-0.3427-1.3509-0.0316-0.34134-0.0274-0.71981 0.01-0.86278 8e-3 -0.03132 0.0184-0.05472 0.026-0.05945 0.0172-0.01065 0.0403 0.03407 0.0515 0.09975 0.10497 0.61645 0.3467 1.2389 0.6718 1.7299 0.271 0.40928 0.61687 0.7271 0.94867 0.87172 0.42789 0.1865 0.98423 0.20332 1.4612 0.04417 0.32271-0.10768 0.56346-0.28084 0.72386-0.52063 0.0429-0.0641 0.0874-0.15224 0.11096-0.21947 0.0501-0.14314 0.0692-0.301 0.0511-0.42148-0.0297-0.19743-0.0977-0.37198-0.19808-0.50835-0.0614-0.08331-0.21077-0.21088-0.32193-0.27485-0.13704-0.07886-0.3164-0.12914-0.52265-0.14653-0.12892-0.01085-0.45729 1.42e-4 -0.53057 0.01783-0.0228 0.0055-0.0592 0.02557-0.0792 0.04367-0.0104 0.0094-0.0199 0.01535-0.0211 0.01323-9e-3 -0.01528-0.0525-0.1686-0.27395-0.95802-0.0832-0.29668-0.1-0.359-0.0973-0.36169 9.9e-4 -9.92e-4 0.0266 0.0048 0.057 0.0129 0.27507 0.07302 0.64265 0.07677 0.97042 0.0099 0.36798-0.07507 0.63217-0.23361 0.72253-0.43361 0.0387-0.0857 0.056-0.17122 0.0526-0.25956-5e-3 -0.13006-0.0529-0.23892-0.14784-0.33655-0.0447-0.04599-0.16017-0.13333-0.21736-0.16442-0.13753-0.07477-0.27317-0.10416-0.51945-0.11256-0.3982-0.01359-0.80097 0.12872-1.2915 0.45628-0.14714 0.09826-0.16924 0.11519-0.2163 0.16563l-0.0254 0.02725-0.0189-0.02996c-0.0654-0.1038-0.208-0.36627-0.35618-0.65554-0.0569-0.11112-0.1227-0.23818-0.14616-0.28236-0.0235-0.04418-0.044-0.08471-0.0456-0.09007-4e-3 -0.01234 0.0462-0.05557 0.14886-0.12895 0.26815-0.19167 0.61256-0.3682 0.92883-0.47608 0.1905-0.06497 0.39722-0.10584 0.66208-0.1309 0.11424-0.01082 0.47351-0.0124 0.57201-0.0026 0.28568 0.02861 0.47783 0.07718 0.60736 0.15346 0.30609 0.18026 0.53456 0.4945 0.63414 0.87221 0.0477 0.18101 0.0677 0.37886 0.056 0.55497-6e-3 0.08449-0.018 0.18059-0.019 0.14787-6.6e-4 -0.0251-6e-3 -0.04807-0.0108-0.04807-4e-3 0-9e-3 0.01409-0.0454 0.1448-0.0326 0.11603-0.0614 0.19251-0.10965 0.2909-0.0976 0.19911-0.22157 0.37723-0.36537 0.52512-0.0732 0.07531-0.1233 0.11945-0.21618 0.19051-0.0838 0.06412-0.10504 0.08273-0.12094 0.106-0.0168 0.02464-0.017 0.04415-6.6e-4 0.07654 0.01 0.02001 0.0192 0.0294 0.045 0.04604 0.10684 0.06893 0.4064 0.19221 0.56769 0.23362 0.16335 0.04194 0.34444-0.02801 0.51612-0.19932 0.1491-0.14879 0.26516-0.32338 0.46707-0.70263 0.0944-0.1773 0.14445-0.26533 0.20809-0.36595 0.11862-0.18752 0.23128-0.33036 0.3688-0.46754 0.277-0.27633 0.56826-0.42559 0.94484-0.48417 0.0797-0.0124 0.25875-0.01521 0.34807-0.0055 0.25776 0.02811 0.50947 0.12497 0.7351 0.28292 0.38819 0.27173 0.69881 0.71194 0.87325 1.2376 0.0549 0.16537 0.0769 0.25626 0.10551 0.43649 0.0309 0.19451 0.0551 0.4192 0.0655 0.60917 7e-3 0.12682 7e-3 0.41084 1.6e-4 0.51603-6e-3 0.08693-0.0236 0.26916-0.0273 0.27749-1e-3 0.0026-1e-3 -0.02252-5e-5 -0.05599 1e-3 -0.03347 3.3e-4 -0.06523-2e-3 -0.07059l-4e-3 -0.0097-3e-3 0.0097c-2e-3 0.0054-0.0131 0.06122-0.0254 0.12414-0.10569 0.54085-0.26816 0.9041-0.5574 1.2463-0.30749 0.36375-0.69784 0.59802-1.1105 0.66649-0.22971 0.03811-0.47387 0.02011-0.68814-0.05077-0.10751-0.03556-0.2558-0.10428-0.3261-0.15113-0.10555-0.07033-0.24955-0.21389-0.34152-0.34045-0.21273-0.29275-0.33663-0.69551-0.35121-1.1417-8e-3 -0.23654 0.0101-0.43217 0.0483-0.53137 0.0183-0.04755 0.0299-0.06247 0.0483-0.06247 0.0192 0 0.0263 0.01217 0.0514 0.08751 0.075 0.22555 0.20079 0.43615 0.35023 0.58656 0.16741 0.16848 0.37758 0.26969 0.62291 0.29997 0.0617 0.0076 0.21867 0.0076 0.28235 6.9e-5 0.18053-0.02146 0.37556-0.07518 0.5063-0.13944 0.15589-0.07663 0.29462-0.18135 0.46024-0.3474 0.22606-0.22666 0.33734-0.4069 0.41582-0.67354 0.15381-0.52257 0.13442-1.0679-0.0535-1.5054-0.0398-0.09256-0.11077-0.21789-0.14299-0.25238-0.045-0.04813-0.19643-0.16653-0.26235-0.20509-0.0402-0.02351-0.0905-0.04415-0.14458-0.05936-0.0645-0.01812-0.18384-0.02143-0.25365-7e-3 -0.17357 0.03582-0.33642 0.13483-0.51309 0.31195-0.14687 0.14724-0.25104 0.28737-0.43797 0.58919-0.17662 0.28518-0.2892 0.43543-0.43804 0.58464-0.11572 0.116-0.2115 0.18764-0.3381 0.25288-0.10941 0.05639-0.18613 0.08283-0.29776 0.10263-0.0599 0.01065-0.0751 0.01121-0.31128 0.01164-0.25742 3.31e-4 -0.30834 0.0037-0.37422 0.02378-0.056 0.01703-0.072 0.06517-0.0322 0.09659 0.0111 0.0088 0.0261 0.04083 0.0726 0.15528 0.10842 0.26682 0.14121 0.363 0.17856 0.52381 0.073 0.31425 0.0932 0.62776 0.0593 0.91898l-6e-3 0.05355-1e-3 -0.04138c-3e-3 -0.08048-8e-3 -0.07253-0.0354 0.04721-0.0539 0.24006-0.10456 0.39362-0.18434 0.55915-0.0929 0.19268-0.19877 0.34219-0.34827 0.4917-0.15079 0.1508-0.2988 0.25461-0.47911 0.33601-0.23169 0.10461-0.50842 0.17375-0.7974 0.19924-0.0729 0.0064-0.30426 0.0091-0.35705 0.0041zm2.9964-6.1925c-0.0688-0.0035-0.18962-0.01766-0.24803-0.02897-0.2462-0.0477-0.54742-0.18031-0.74094-0.32619-0.36898-0.27815-0.66156-0.68883-0.792-1.1117-0.0267-0.08649-0.0434-0.16026-0.0617-0.27222-0.0205-0.1253-0.0263-0.19183-0.0199-0.22637 6e-3 -0.0335 0.0119-0.04178 0.0286-0.04178 0.0268 0 0.0559 0.03408 0.17098 0.20024 0.17143 0.24757 0.38171 0.45124 0.63974 0.61963 0.13157 0.08587 0.19915 0.11957 0.32835 0.16372 0.21472 0.07337 0.40157 0.10117 0.64302 0.09567 0.13266-3e-3 0.22051-0.01227 0.33179-0.03497 0.28356-0.0578 0.50353-0.15438 0.79596-0.34945 0.14624-0.09756 0.23407-0.16716 0.39232-0.31089 0.0979-0.0889 0.16954-0.15027 0.17548-0.15027 2e-3 0 0.0259 0.03013 0.0534 0.06694 0.0274 0.03682 0.12581 0.16552 0.21854 0.28601 0.23235 0.30191 0.30852 0.40388 0.40978 0.54857l9e-3 0.01306-0.0173 0.01316c-0.0165 0.01257-0.0177 0.01277-0.0266 0.0047-0.0122-0.01101-0.0381-0.01075-0.06 6.62e-4 -0.01 5e-3 -0.04 0.02891-0.0677 0.05325-0.5963 0.5251-1.4217 0.82553-2.163 0.78731zm-0.28419-1.2685c-0.245-0.23934-0.56985-0.55354-0.61278-0.59267-0.0275-0.025-0.0499-0.04635-0.0499-0.04741 0-0.01025 0.6521-0.6557 0.74122-0.73369l0.0378-0.03304 0.0336 0.03102c0.0185 0.01707 0.20359 0.18713 0.41132 0.37794s0.37769 0.34886 0.37769 0.35122c0 0.0057-0.0341 0.0355-0.0382 0.0334-0.0257-0.01306-0.0309-0.01439-0.0464-0.01148-9e-3 0.0017-0.0277 0.01167-0.0405 0.02203-0.0128 0.01032-0.16844 0.1612-0.34581 0.33526-0.32476 0.31873-0.35052 0.34174-0.38255 0.34174-6e-3 0-0.0405-0.03043-0.0854-0.0743z" stroke-width=".33073" fill="#fdfdeb"/>
    </g>
  </g>
  <ellipse style="fill: rgb(7, 87, 250);" cx="15.887" cy="16.463" rx="3.527" ry="3.608"/>
</svg>